<?xml version="1.0" encoding="UTF-8"?>
<svg id="Capa_2" data-name="Capa 2" xmlns="http://www.w3.org/2000/svg" viewBox="0 0 569.54 592">
  <defs>
    <style>
      .cls-1 {
        fill: #fff;
      }
    </style>
  </defs>
  <g id="Capa_1-2" data-name="Capa 1">
    <g>
      <path class="cls-1" d="M569,202.98c-2.05-10.97-9.56-19.74-20.09-23.46l-164.13-57.88c.36,113.8-80.47,215.18-196.34,236.81-25.07,4.68-49.96,5.29-73.98,2.28,1.22,19.28,1.51,38.73.89,58.22-1.41,43.9-7.56,89.32-18.26,134.99-3.1,13.25,2.4,26.38,14.02,33.45,6.76,4.11,14.39,5.44,21.62,4.09,5.19-.97,10.19-3.32,14.51-7.02l411.49-352.37c8.48-7.26,12.32-18.15,10.27-29.13Z"/>
      <path class="cls-1" d="M185.32,348.95c112.02-20.91,190.16-118.92,189.82-228.95l-107.2-37.81-129.58-45.7-57.62-20.32L39.88,1.77C34.01-.31,27.95-.52,22.35.94c-6.21,1.62-11.85,5.3-16.07,10.78-8.02,10.43-8.4,24.19-.98,35.06,6.96,10.19,13.61,20.48,19.94,30.85,1.84,3.01,3.65,6.03,5.44,9.06,8.88,15.06,17.07,30.27,24.55,45.58.4.81.79,1.62,1.18,2.43,4.41,9.12,8.56,18.26,12.45,27.43,12.67,29.86,22.81,60.53,30.28,91.5,1.55,6.41,2.98,12.84,4.29,19.27.64,3.12,1.25,6.24,1.83,9.36,4.22,22.59,7.07,45.62,8.53,68.89,23.23,2.9,47.29,2.32,71.52-2.21Z"/>
    </g>
  </g>
</svg>